PathFileType	4	(X/Y/Z)	C:/Users/beibeiliu/ov580/test_trc/capture2\sequence.28_training_dense_left.trc
DataRate	CameraRate	NumFrames	NumMarkers	Units	OrigDataRate	OrigDataStartFrame	OrigNumFrames
120	120	9	19	mm	120	251	400
Frame#	Time	ThumbCMC			ThumbMCP			ThumbIP			ThumbTip			IndexMCP			IndexPIP			IndexTip			MiddleMCP			MiddlePIP			MiddleTip			RingMCP			RingPIP			RingTip			PinkyMCP			PinkyPIP			PinkyTip			BackHand1			BackHand2			BackHand3	
		X0	Y0	Z0	X1	Y1	Z1	X2	Y2	Z2	X3	Y3	Z3	X4	Y4	Z4	X5	Y5	Z5	X6	Y6	Z6	X7	Y7	Z7	X8	Y8	Z8	X9	Y9	Z9	X10	Y10	Z10	X11	Y11	Z11	X12	Y12	Z12	X13	Y13	Z13	X14	Y14	Z14	X15	Y15	Z15	X16	Y16	Z16	X17	Y17	Z17	X18	Y18	Z18	
250	2.08333	-116.803	9.18954	42.3134	-98.1534	-10.8297	25.2096	-90.2782	-19.7944	-0.0707628	-90.1229	-26.7842	-19.0696	-109.762	20.7618	-29.2333	-113.017	14.9058	-52.6763	-113.094	9.56511	-82.357	-129.947	15.5504	-43.8725	-123.304	6.5163	-65.0718	-122.847	-0.406877	-90.0216	-146.221	10.7941	-39.0343	-146.099	1.89844	-63.9332	-138.863	-3.32653	-86.1249	-165.415	7.41077	-29.9356	-161.5	0.541214	-52.0492	-157.648	1.90814	-73.5534	-160.438	31.5179	8.05394	-167.372	34.5057	36.7223	-136.251	34.8675	29.5751	
251	2.09167	-113.821	9.37794	46.1789	-99.2975	-10.7872	28.6944	-90.3263	-20.6841	2.76909	-89.8792	-27.1083	-20.7281	-112.202	18.0304	-31.5182	-110.808	11.4087	-54.8527	-111.343	6.58189	-77.825	-127.96	13.9766	-41.9361	-126.205	4.913	-64.0973	-122.034	-2.86964	-90.2252	-147.397	9.48715	-42.557	-143.381	1.27465	-62.7488	-140.581	-6.12169	-87.8949	-165.792	4.85861	-28.6751	-161.52	-0.662008	-50.8511	-155.406	-0.116374	-76.0326	-159.585	30.8136	5.60826	-168.283	36.3948	36.1406	-138.094	36.7723	26.4266	
252	2.1	-116.702	10.1335	44.6978	-96.2037	-9.63814	25.0938	-86.7067	-20.4352	5.88335	-82.4011	-30.4638	-16.0898	-111.642	16.091	-29.1259	-112.373	6.95856	-57.3853	-112.513	2.35681	-81.3549	-131.033	11.6401	-44.1719	-125.569	2.89139	-64.4355	-121.473	-5.38443	-94.5506	-149.25	6.6454	-41.1815	-146.601	-1.69823	-60.6506	-145.888	-8.69989	-85.88	-170.495	1.62448	-33.2482	-161.081	-5.61135	-53.4311	-158.332	-5.25306	-75.4795	-161.523	27.3997	7.22422	-168.546	35.702	34.5372	-136.521	36.311	25.6396	
253	2.10833	-112.153	9.67081	46.3457	-98.6047	-10.586	28.118	-82.502	-22.1935	8.18266	-74.1354	-33.0294	-10.7656	-115.039	12.0648	-33.7918	-108.652	4.90128	-54.2004	-107.165	-0.560203	-78.9437	-131.158	9.07474	-44.9658	-127.051	2.32725	-64.3316	-125.406	-6.31985	-92.4913	-152.744	3.84362	-44.1973	-152.493	-3.38456	-63.86	-148.959	-9.38076	-90.6521	-172.577	-0.561318	-32.2778	-168.188	-8.19397	-53.5751	-171.283	-5.17788	-73.2072	-162.642	26.3428	2.49811	-169.336	34.7222	30.1534	-133.243	32.669	23.5216	
254	2.11667	-113.262	7.55304	39.5959	-94.6698	-13.6764	29.2164	-81.9498	-25.7084	12.8321	-70.9864	-37.9795	-7.28292	-110.673	7.53962	-31.7053	-105.709	0.245251	-55.9163	-104.933	-5.74093	-82.7512	-134.92	7.93595	-41.4381	-129.877	0.424861	-66.0934	-126.854	-6.12116	-97.5108	-154.939	3.95554	-41.2176	-152.584	-3.52633	-66.425	-154.171	-8.44151	-91.2122	-178.577	-1.14447	-30.4763	-176.023	-7.32968	-50.3413	-180.753	-4.37337	-73.9407	-159.957	25.2234	2.49605	-165.809	33.26	30.7942	-132.857	31.2122	23.9837	
255	2.125	-115.183	3.93643	40.3286	-98.4268	-16.1962	32.3843	-81.8485	-30.2441	16.84	-70.7843	-43.03	-1.20508	-112.308	3.27901	-30.3669	-108.39	-3.83664	-57.0962	-107.406	-6.38234	-78.8779	-131.392	3.92487	-42.8709	-134.258	-2.26365	-64.7737	-132.374	-6.32998	-94.2652	-154.184	3.28175	-39.4522	-158.341	-2.67955	-65.7333	-155.21	-5.10735	-91.0652	-179.857	0.594703	-31.2895	-186.775	-5.16907	-46.9015	-192.561	-0.403461	-71.3473	-159.668	23.188	3.44649	-164.247	34.3507	31.0436	-135.053	29.482	23.6965	
256	2.13333	-114.226	2.28342	45.1159	-98.4191	-19.607	34.5969	-86.0711	-32.9709	16.9697	-68.2189	-46.4443	3.92766	-112.526	-1.12373	-27.3524	-105.638	-6.65212	-55.4789	-106.792	-6.09394	-79.0783	-138.93	3.32259	-40.4582	-136.189	-1.62475	-64.4933	-133.746	-4.02475	-91.1395	-155.658	2.74256	-41.3664	-159.267	0.223813	-62.6764	-158.317	-1.87094	-87.7797	-182.476	2.91019	-27.6051	-184.084	-1.28595	-47.1739	-192.126	4.02301	-67.2526	-161.071	22.3193	3.8422	-163.441	36.1031	31.3411	-135.422	27.7715	23.6374	
257	2.14167	-113.856	-0.750371	45.9448	-98.766	-21.4226	32.9671	-88.1141	-34.0146	18.4742	-72.8747	-47.5102	4.37068	-112.533	-1.09361	-31.7431	-112.42	-4.9451	-56.2557	-111.047	-3.01564	-76.7639	-134.213	4.83468	-41.5051	-137.484	1.54902	-68.7446	-132.925	1.08754	-92.7893	-157.658	7.07952	-36.2058	-159.71	5.16536	-60.7395	-155.477	4.03022	-85.5382	-182.744	5.79887	-27.1883	-186.506	3.46327	-49.1975	-193.434	13.0864	-68.132	-160.049	22.4468	3.68122	-162.979	37.2757	32.5975	-133.919	23.1369	19.7998	
258	2.15	-116.655	-1.65925	43.0996	-104.952	-21.2082	33.9532	-83.6374	-35.3124	16.0826	-72.926	-44.726	3.2993	-116.486	-0.292262	-31.166	-113.915	-1.61192	-54.4083	-111.634	1.78664	-76.2818	-139.499	8.6598	-41.4182	-134.943	5.42401	-68.4634	-137.475	8.13251	-95.7161	-157.17	9.25247	-40.2112	-155.969	9.13876	-63.3283	-157.206	12.6784	-89.8799	-180.315	9.98908	-30.1164	-187.37	10.488	-51.2301	-190.248	16.0065	-67.6224	-161.976	26.4706	5.85593	-159.532	36.4032	32.1264	-133.572	23.4365	22.389	
